HIERARCHY
ROOT Hips
{
	OFFSET	0.00	0.00	0.00
	CHANNELS 6 Xposition Yposition Zposition Zrotation Xrotation Yrotation
	JOINT Spine
	{
		OFFSET	 0.00	0.01	 0.00
		CHANNELS 3 Zrotation Xrotation Yrotation
		JOINT Spine1
		{
			OFFSET	 0.00	 2.45913012437421	 0.00
			CHANNELS 3 Zrotation Xrotation Yrotation
            JOINT Neck
            {
                OFFSET	 0.00	 2.48462964506057	 0.00
                CHANNELS 3 Zrotation Xrotation Yrotation
                JOINT Head
                {
                    OFFSET	 0.00	 0.927524780924562	 0.00
                    CHANNELS 3 Zrotation Xrotation Yrotation
                    End Site 
                    {
                        OFFSET	 0.00	 1.14999962169752	 0.00
                    }
                }
            }
			JOINT LeftShoulder
			{
				OFFSET	 0.00	 2.48462964506057	 0.00
				CHANNELS 3 Zrotation Xrotation Yrotation
				JOINT LeftUpArm
				{
					OFFSET	 0.00	 1.24881979654096	 0.00
					CHANNELS 3 Zrotation Xrotation Yrotation
					JOINT LeftForeArm
					{
						OFFSET	 0.00	2.59758046908119	 0.00
						CHANNELS 3 Zrotation Xrotation Yrotation
						JOINT LeftHand
						{
							OFFSET	 0.00	2.45542024364365	 0.00
							CHANNELS 3 Zrotation Xrotation Yrotation
							JOINT LeftHandThumb 
							{
								OFFSET	 0.00	0.00	 0.00
								CHANNELS 3 Zrotation Xrotation Yrotation
								End Site
								{
									OFFSET	 0.00	0.00	1.00000003353624
								}
							}
							JOINT L_Wrist_End 
							{
								OFFSET	 0.00	0.99999967115358	 0.00
								CHANNELS 3 Zrotation Xrotation Yrotation
								End Site 
								{
									OFFSET	 0.00	 0.00	 0.00
								}
							}
						}
					}
				}
			}
			JOINT RightShoulder
			{
				OFFSET	 0.00	 2.48462964506057	 0.00
				CHANNELS 3 Zrotation Xrotation Yrotation
				JOINT RightUpArm
				{
					OFFSET	 0.00	 1.24881979654096	 0.00
					CHANNELS 3 Zrotation Xrotation Yrotation
					JOINT RightForeArm
					{
						OFFSET	 0.00	2.59758046908119	 0.00
						CHANNELS 3 Zrotation Xrotation Yrotation
						JOINT RightHand
						{
							OFFSET	 0.00	2.45542024364365	 0.00
							CHANNELS 3 Zrotation Xrotation Yrotation
							JOINT RightHandThumb 
							{
								OFFSET	 0.00	0.00	 0.00
								CHANNELS 3 Zrotation Xrotation Yrotation
								End Site
								{
									OFFSET	 0.00	0.00	1.00000003353624
								}
							}
							JOINT R_Wrist_End 
							{
								OFFSET	 0.00	0.99999967115358	 0.00
								CHANNELS 3 Zrotation Xrotation Yrotation
								End Site 
								{
									OFFSET	 0.00	 0.00	 0.00
								}
							}
						}
					}
				}
			}
		}
	}
	JOINT LeftUpLeg
	{
		OFFSET	 1.2719394002717	 0.00	 0.00
		CHANNELS 3 Zrotation Xrotation Yrotation
		JOINT LeftLowLeg
		{
			OFFSET	 0.00	-4.3429100912261	 0.00
			CHANNELS 3 Zrotation Xrotation Yrotation
			JOINT LeftFoot
			{
				OFFSET	 0.00	-4.48767017425826	 0.00
				CHANNELS 3 Zrotation Xrotation Yrotation
				JOINT LeftToeBase
                {
                    OFFSET	 0.00	0.00	 1.51507020887566
                    CHANNELS 3 Zrotation Xrotation Yrotation
                    End Site 
                    {
                        OFFSET	 0.00	0.00	 0.75000010571191
                    }
                }
			}
		}
	}
	JOINT RightUpLeg
	{
		OFFSET	 -1.2719393604653	 0.00	 0.00
		CHANNELS 3 Zrotation Xrotation Yrotation
		JOINT RightLowLeg
		{
			OFFSET	 0.00	-4.3429100912261	 0.00
			CHANNELS 3 Zrotation Xrotation Yrotation
			JOINT RightFoot
			{
				OFFSET	 0.00	-4.48767017425826	 0.00
				CHANNELS 3 Zrotation Xrotation Yrotation
				JOINT RightToeBase
                {
                    OFFSET	 0.00	0.00	 1.51507020887566
                    CHANNELS 3 Zrotation Xrotation Yrotation
                    End Site 
                    {
                        OFFSET	 0.00	0.00	 0.749999965609858
                    }
                }   
			}
		}
	}
}
MOTION 
Frames:	10 
Frame Time: 0.02 
 -1.4133900451660155 0.6912960052490235 9.339190063476563 -168.579 69.5547 -187.273 6.9181 -28.7956 -1.13366 -2.3695 6.11771 1.13003 6.77864 31.0206 1.9229 -73.4634 -80.1431 -58.9762 -120.8663 0.245551 8.58817 -41.4326 7.48156 -348.737 0.0 12.0577 0.0 5.26751 -9.9952 23.5113 0.0 0.0 0.0 0.0 0.0 0.0 121.7561 -3.70022 -2.23067 42.6617 0.70447 -14.3352 0.0 15.3303 0.0 -2.23084 -5.86053 -1.66366 0.0 0.0 0.0 0.0 0.0 0.0 1.31308 -15.1461 -27.8766 0.0 5.23883 0.0 0.20015 -4.3873997 20.8413 0.0 -10.943399 0.0 7.41751 -12.2083 387.401 0.0 2.06092 0.0 3.4606 0.26309967 -29.8537 0.0 -16.425 0.0 
  -1.407779998779297 0.6904709625244141 9.339359741210938 -168.451 69.5981 -187.411 6.93068 -28.7674 -1.14522 -2.29681 6.1819 1.10702 6.71934 31.0858 1.9998 -73.4859 -80.1441 -59.1082 -120.7825 0.198596 8.51588 -41.64 7.13035 -349.073 0.0 11.3242 0.0 5.26349 -10.2089 23.3128 0.0 0.0 0.0 0.0 0.0 0.0 121.765396 -3.74547 -2.43482 42.6043 0.590293 -14.0792 0.0 15.1784 0.0 -2.22654 -5.73774 -2.06243 0.0 0.0 0.0 0.0 0.0 0.0 1.36612 -15.0183 -28.0311 0.0 5.08677 0.0 0.232452 -4.3232 20.9657 0.0 -11.12057 0.0 7.41996 -12.1485 387.436 0.0 2.05242 0.0 3.50227 0.26690006 -29.8727 0.0 -16.4356 0.0 
  -1.4027799987792968 0.6903600311279297 9.339400024414063 -168.351 69.6603 -187.552 6.92416 -28.7229 -1.17016 -2.2151 6.25899 1.08939 6.81518 31.0952 1.92026 -73.0976 -80.1413 -58.7036 -120.732 0.138836 8.50724 -41.8175 6.8609 -349.58 0.0 10.6419 0.0 5.16628 -10.5694 23.4803 0.0 0.0 0.0 0.0 0.0 0.0 121.742905 -3.73436 -2.4698 42.5937 0.371877 -14.1146 0.0 15.0347 0.0 -2.28518 -5.84014 -1.91901 0.0 0.0 0.0 0.0 0.0 0.0 1.41637 -14.8838 -28.0491 0.0 4.95735 0.0 0.163752 -4.3288 20.9468 0.0 -11.08231 0.0 7.43033 -12.0984 387.552 0.0 2.09161 0.0 3.55154 0.24709988 -29.9321 0.0 -16.4459 0.0 
  -1.3979800415039063 0.690863037109375 9.339400024414063 -168.303 69.7015 -187.646 6.91741 -28.6989 -1.17544 -2.14883 6.31234 1.09843 6.86983 31.1464 1.88825 -72.4722 -80.1264 -58.1267 -120.6602 0.10267 8.41873 -42.0193 6.55869 -350.08 0.0 10.0184 0.0 4.89753 -10.795 23.7569 0.0 0.0 0.0 0.0 0.0 0.0 121.7417 -3.81744 -2.55684 42.5529 0.29022 -14.1759 0.0 14.8381 0.0 -2.12336 -5.97629 -2.03155 0.0 0.0 0.0 0.0 0.0 0.0 1.44381 -14.774 -28.2117 0.0 4.83202 0.0 0.116532 -4.309 21.0843 0.0 -11.10909 0.0 7.43726 -12.0898 387.659 0.0 2.16483 0.0 3.60408 0.19470024 -29.9757 0.0 -16.42816 0.0 
  -1.3935800170898438 0.6916929626464844 9.339390258789063 -168.234 69.7376 -187.727 6.9025 -28.6869 -1.19229 -2.09135 6.35697 1.10186 6.96002 31.198 1.82172 -71.438 -80.0962 -57.1168 -120.6039 0.0888685 8.38337 -42.1928 6.25888 -350.34 0.0 9.58839 0.0 4.75828 -11.0539 24.0304 0.0 0.0 0.0 0.0 0.0 0.0 121.697205 -3.85058 -2.482 42.6124 0.0295581 -14.2355 0.0 14.6552 0.0 -2.14959 -6.02142 -2.01729 0.0 0.0 0.0 0.0 0.0 0.0 1.44931 -14.7241 -28.2623 0.0 4.80877 0.0 0.0112582 -4.3733997 21.0764 0.0 -10.89631 0.0 7.44604 -12.0821 387.637 0.0 2.22251 0.0 3.6188 0.17889977 -29.9519 0.0 -16.4573 0.0 
  -1.388699951171875 0.6926309967041016 9.339550170898438 -168.146 69.7863 -187.815 6.90208 -28.6614 -1.21932 -2.0443 6.36882 1.06816 6.94817 31.3059 1.86308 -70.0576 -80.0445 -55.8408 -120.563995 0.0540102 8.38932 -42.3555 5.99017 -350.606 0.0 9.23014 0.0 4.57859 -11.1292 24.429 0.0 0.0 0.0 0.0 0.0 0.0 121.6487 -3.87392 -2.5101 42.6672 -0.141615 -14.234 0.0 14.4694 0.0 -2.15744 -5.91377 -2.36564 0.0 0.0 0.0 0.0 0.0 0.0 1.42591 -14.6985 -28.3208 0.0 4.86279 0.0 0.0450711 -4.3897 21.139 0.0 -10.88803 0.0 7.45116 -12.0524 387.537 0.0 2.25852 0.0 3.60102 0.19379997 -29.8876 0.0 -16.46393 0.0 
  -1.3839799499511718 0.6928399658203125 9.339669799804687 -168.053 69.8292 -187.916 6.91852 -28.6641 -1.2498 -2.01747 6.39143 1.01053 6.84713 31.427 2.02835 -68.1964 -79.9931 -54.1504 -120.5289 -0.0256328 8.3368 -42.5187 5.70835 -350.726 0.0 9.03761 0.0 4.48958 -11.2989 24.7517 0.0 0.0 0.0 0.0 0.0 0.0 121.6458 -3.83625 -2.47586 42.6762 -0.355335 -14.2046 0.0 14.2873 0.0 -1.91738 -6.09149 -2.2284 0.0 0.0 0.0 0.0 0.0 0.0 1.39998 -14.6871 -28.3071 0.0 4.94868 0.0 0.103166 -4.4118004 21.159 0.0 -10.892429 0.0 7.46781 -12.0307 387.474 0.0 2.31202 0.0 3.57833 0.20429993 -29.8592 0.0 -16.4846 0.0 
  -1.3796499633789063 0.6915589904785157 9.3397802734375 -168.087 69.8328 -188.019 6.99235 -28.7319 -1.16372 -2.06585 6.40881 1.04007 7.01283 31.5898 1.92228 -65.802 -79.8932 -51.7252 -120.4443 -0.0464882 8.29234 -42.7171 5.42878 -350.937 0.0 8.88268 0.0 4.38658 -11.3871 25.0231 0.0 0.0 0.0 0.0 0.0 0.0 121.665 -3.89598 -2.56429 42.7161 -0.407577 -14.0401 0.0 14.121 0.0 -1.78665 -6.1752 -2.77352 0.0 0.0 0.0 0.0 0.0 0.0 1.38339 -14.6623 -28.1457 0.0 4.97391 0.0 0.178807 -4.4330006 21.18 0.0 -10.89528 0.0 7.48374 -12.0652 387.545 0.0 2.40281 0.0 3.58436 0.19040012 -29.8171 0.0 -16.47846 0.0 
  -1.3759300231933593 0.6921810150146485 9.339630126953125 -168.047 69.8489 -188.125 7.02848 -28.7431 -1.14505 -2.0753 6.35605 1.01742 7.01509 31.8197 1.99853 -63.3517 -79.774 -49.4056 -120.3609 -0.080341 8.27033 -42.9327 5.22874 -351.134 0.0 8.73361 0.0 4.27113 -11.4415 25.1364 0.0 0.0 0.0 0.0 0.0 0.0 121.6193 -3.86664 -2.47414 42.844 -0.61109 -13.8787 0.0 13.7681 0.0 -1.77584 -5.82549 -3.13581 0.0 0.0 0.0 0.0 0.0 0.0 1.37811 -14.6511 -28.0743 0.0 5.01016 0.0 0.233499 -4.4613 21.203 0.0 -10.86677 0.0 7.51693 -12.0997 387.659 0.0 2.51048 0.0 3.58733 0.15789986 -29.8787 0.0 -16.49284 0.0 
  -1.3733599853515626 0.6922270202636719 9.339310302734376 -167.983 69.8727 -188.245 7.01221 -28.7952 -1.17969 -2.04036 6.34996 1.0011 7.0453 31.9948 2.03121 -60.1771 -79.5739 -46.2603 -120.281296 -0.0908463 8.2548 -43.1557 5.14494 -351.347 0.0 8.516 0.0 4.05093 -11.4986 24.9866 0.0 0.0 0.0 0.0 0.0 0.0 121.6294 -3.86818 -2.52156 42.8316 -0.591695 -13.8063 0.0 13.6271 0.0 -1.454 -6.21416 -3.6603 0.0 0.0 0.0 0.0 0.0 0.0 1.40498 -14.6084 -27.9435 0.0 4.99287 0.0 0.231458 -4.4865 21.1084 0.0 -10.87976 0.0 7.55801 -12.1106 387.71 0.0 2.59239 0.0 3.57823 0.1505003 -29.9022 0.0 -16.50844 0.0 
